<?xml version="1.0" encoding="UTF-8"?>
<!DOCTYPE svg PUBLIC "-//W3C//DTD SVG 1.1//EN" "http://www.w3.org/Graphics/SVG/1.1/DTD/svg11.dtd">
<!-- Creator: CorelDRAW X8 -->
<svg xmlns="http://www.w3.org/2000/svg" xml:space="preserve" width="70mm" height="13mm" version="1.1" style="shape-rendering:geometricPrecision; text-rendering:geometricPrecision; image-rendering:optimizeQuality; fill-rule:evenodd; clip-rule:evenodd"
viewBox="0 0 7000 1300"
 xmlns:xlink="http://www.w3.org/1999/xlink">
 <defs>
  <style type="text/css">
   <![CDATA[
    .fil0 {fill:white}
    .fil1 {fill:#314152;fill-rule:nonzero}
   ]]>
  </style>
 </defs>
 <g id="Layer_x0020_1">
  <metadata id="CorelCorpID_0Corel-Layer"/>
  <rect class="fil0" width="7000" height="1300" rx="66" ry="100"/>
  <path class="fil1" d="M773 816c16,13 43,19 81,19 23,0 51,-2 83,-7 18,-3 28,-5 32,-6 4,0 8,-1 14,-3l0 115c-5,1 -9,2 -12,2 -13,3 -27,6 -40,8 -14,2 -30,4 -47,6 -17,1 -34,2 -49,2 -33,0 -64,-3 -94,-8 -31,-6 -58,-16 -82,-31 -24,-15 -42,-34 -53,-58 -18,-37 -28,-83 -28,-139l-55 0 0 -97 131 0 13 1 22 2c59,0 88,-27 88,-82 0,-20 -4,-34 -14,-45 -9,-10 -19,-17 -30,-20 -10,-3 -18,-5 -22,-5l-215 0 0 -81 857 0 0 81 -87 0 2 460 -166 0 0 -182 -157 0 -1 -107 158 0 0 -171 -187 0c25,26 37,59 37,101 0,56 -18,100 -56,131 -35,29 -86,44 -152,44 0,26 9,50 29,70z"/>
  <path id="1" class="fil1" d="M1349 1093c0,32 -13,62 -40,90 -26,28 -60,50 -102,66 -43,17 -88,25 -136,25 -22,0 -43,-3 -62,-7 -20,-4 -41,-11 -63,-20 -39,-16 -71,-34 -96,-52 -27,-20 -48,-38 -64,-54l-36 -37 82 -84c4,11 18,28 42,49 23,21 52,40 85,57 20,10 38,18 55,23 17,6 34,8 52,8 86,0 129,-22 129,-68 0,-30 -17,-45 -52,-45 -9,0 -19,2 -28,5 -9,4 -19,9 -30,16 -21,13 -35,24 -44,32l-58 -82c14,-12 36,-25 67,-42 31,-16 63,-24 97,-24 66,0 117,12 151,36 34,25 51,61 51,108z"/>
  <path id="2" class="fil1" d="M1835 808c-3,2 -18,9 -44,21 -24,11 -54,21 -91,32 -19,6 -37,10 -53,13 -17,3 -33,5 -49,5l-11 0 -12 0c-61,0 -111,-14 -148,-41 -36,-27 -55,-64 -55,-110 0,-44 19,-77 58,-100 -72,-19 -108,-56 -108,-110 0,-26 10,-47 30,-66 20,-18 45,-31 74,-40 30,-8 58,-13 85,-13 24,0 47,2 67,5 19,4 38,9 57,16 33,11 49,33 49,66 0,11 -4,22 -12,34 -9,11 -15,18 -20,20l-107 2 -5 -26 9 -7c3,-3 6,-6 9,-11 2,-4 3,-9 3,-16 0,-9 -2,-16 -6,-19 -5,-3 -12,-5 -21,-6 -34,0 -51,18 -51,56 0,21 5,38 14,51 9,13 19,22 30,27 10,5 17,7 21,7l119 0 0 94 -69 0c-10,0 -20,3 -32,9 -11,5 -17,17 -17,34 0,27 15,41 44,41 7,0 12,0 15,0 4,-1 9,-2 15,-4 64,-18 115,-34 151,-47 37,-14 58,-27 62,-38l-1 121z"/>
  <polygon id="3" class="fil1" points="2056,470 1969,470 1970,930 1805,930 1804,470 1718,470 1718,389 2056,389 "/>
  <path id="4" class="fil1" d="M2331 470l-87 0 0 460 -165 0 0 -460 -86 0 0 -81 83 0c-7,-32 -22,-64 -46,-97 -24,-33 -60,-49 -108,-49 -46,0 -69,21 -69,65 0,18 3,33 9,45 6,11 14,21 23,28l33 28 -168 0 -18 -14c-8,-6 -15,-16 -22,-29 -7,-12 -11,-29 -11,-49 0,-62 15,-108 46,-138 16,-16 36,-29 61,-39 24,-9 53,-14 86,-14l35 0c64,0 117,11 157,32 41,21 71,46 92,76 20,30 35,60 43,90l19 65 93 0 0 81z"/>
  <path id="5" class="fil1" d="M2766 813l0 115c-2,1 -4,2 -6,2 -12,3 -26,5 -43,8 -16,3 -33,5 -50,6 -18,2 -34,3 -49,3 -52,0 -98,-8 -140,-22 -41,-15 -71,-40 -88,-75 -11,-24 -20,-48 -26,-73 -7,-26 -10,-46 -10,-61l-60 0 0 -97 141 0 19 1 31 0c85,0 127,-20 127,-59 0,-21 -5,-38 -14,-51 -9,-13 -20,-23 -31,-30 -12,-6 -19,-10 -22,-10l-276 0 0 -81 606 0 0 81 -129 0c24,22 35,56 35,101 0,33 -11,62 -32,89 -21,25 -48,45 -81,59 -34,13 -68,20 -104,20 -17,0 -33,-2 -48,-5l-1 11 0 13c0,21 8,41 24,59 16,13 42,20 78,20 27,0 59,-4 97,-12 18,-3 30,-6 37,-8 6,-1 12,-3 15,-4z"/>
  <path id="6" class="fil1" d="M3736 541c1,2 1,5 2,8 0,4 0,9 0,16 0,8 0,21 -1,37 -1,17 -1,28 -1,32 0,11 -1,20 -2,27 -2,7 -3,11 -4,13 -10,-2 -18,-3 -24,-4 -7,0 -12,-1 -16,-1 -33,0 -55,7 -67,19 -11,13 -18,24 -19,32l0 210 -166 0 0 -79c-24,12 -49,21 -76,28 -27,6 -53,9 -79,9 -35,0 -69,-7 -102,-23 -33,-15 -59,-37 -79,-66 -21,-29 -31,-62 -31,-99 0,-39 9,-73 26,-101 18,-28 43,-49 75,-64 17,-8 36,-14 55,-18 20,-5 41,-7 62,-7 23,0 46,3 69,9l36 10 0 111 -21 -9c-9,-5 -20,-7 -31,-8 -35,0 -62,6 -79,20 -18,13 -27,29 -27,47 2,24 11,41 25,51 14,10 34,15 61,15 22,0 43,-3 62,-10 19,-8 38,-18 54,-31l-1 -245 -395 0 0 -81 687 0 0 81 -127 0 2 98c26,-20 58,-30 96,-30 11,0 23,1 36,3z"/>
  <path id="7" class="fil1" d="M4602 470l-155 0 0 96c15,12 30,31 44,59 14,27 21,63 21,106 0,22 -3,42 -8,62 -6,20 -14,38 -24,56 -20,35 -47,63 -81,83 -34,20 -70,29 -108,29 -38,0 -69,-2 -92,-6 -24,-3 -38,-8 -44,-12l0 -114c3,3 15,7 38,12 22,4 41,6 56,6 13,0 24,-3 34,-8 10,-6 18,-14 26,-24 8,-10 14,-22 19,-36 4,-14 6,-29 6,-46 0,-71 -26,-106 -79,-106 -12,0 -22,2 -31,7 -9,4 -17,11 -23,19 -12,16 -19,29 -20,40l0 48 -156 0 0 -58c-5,-30 -28,-45 -71,-45 -30,0 -51,9 -62,27 -6,10 -10,22 -13,36 -4,14 -5,30 -5,49 0,34 8,61 25,79 17,19 37,29 63,29 6,0 13,-1 20,-3 7,-2 15,-5 24,-9 8,-3 15,-6 21,-9 6,-2 12,-5 17,-8l0 123c-15,13 -56,20 -124,20 -38,0 -74,-10 -107,-31 -34,-20 -62,-49 -83,-85 -20,-36 -31,-75 -31,-118 0,-44 11,-83 32,-116 22,-34 50,-59 85,-76 18,-8 35,-15 53,-19 19,-5 37,-7 56,-7 46,0 84,9 112,25 29,17 51,35 66,54 3,-2 9,-10 19,-24 5,-7 9,-13 14,-18 5,-4 9,-8 14,-11 8,-5 15,-9 22,-12 6,-3 12,-6 18,-8 11,-4 25,-6 41,-6 13,0 29,1 48,4l0 -54 -613 0 0 -81 936 0 0 81z"/>
  <polygon id="8" class="fil1" points="4823,470 4736,470 4737,930 4572,930 4571,470 4485,470 4485,389 4823,389 "/>
  <path id="9" class="fil1" d="M5038 816c16,13 43,19 81,19 23,0 51,-2 84,-7 17,-3 27,-5 31,-6 4,0 8,-1 14,-3l0 115c-5,1 -9,2 -12,2 -13,3 -27,6 -40,8 -14,2 -30,4 -47,6 -17,1 -33,2 -49,2 -32,0 -64,-3 -94,-8 -31,-6 -58,-16 -82,-31 -24,-15 -41,-34 -53,-58 -18,-37 -27,-83 -27,-139l-56 0 0 -97 131 0 13 1 22 2c59,0 89,-27 89,-82 0,-20 -5,-34 -15,-45 -9,-10 -19,-17 -30,-20 -10,-3 -18,-5 -22,-5l-215 0 0 -81 857 0 0 81 -87 0 2 460 -166 0 0 -182 -157 0 -1 -107 158 0 0 -171 -187 0c25,26 37,59 37,101 0,56 -18,100 -55,131 -36,29 -87,44 -153,44 0,26 9,50 29,70z"/>
  <path id="10" class="fil1" d="M5542 396l61 2 0 71 -276 0 0 -75 44 0c-28,-50 -62,-89 -102,-115 -40,-26 -72,-43 -95,-51l97 -87c11,3 29,11 55,25 26,14 60,40 100,78 40,38 78,89 116,152z"/>
  <path id="11" class="fil1" d="M6129 620c11,14 18,24 21,30 3,6 5,19 5,37 0,12 -2,25 -4,38 -3,12 -7,25 -12,38 -9,25 -24,49 -44,71 -20,22 -47,40 -80,53 -33,14 -71,20 -116,20 -52,0 -101,-12 -145,-36 -43,-25 -78,-57 -103,-96 -24,-39 -37,-79 -37,-121l3 -34 4 -30 158 0c-5,21 -7,38 -7,51 0,12 1,25 4,37 6,26 20,49 43,69 23,20 50,30 80,30 28,0 51,-9 70,-29 18,-19 27,-42 27,-70 0,-20 -6,-34 -19,-44 -13,-10 -23,-14 -29,-14l-63 0 0 -102 368 1 0 -49 -717 0 0 -81 968 0 0 81 -86 0 0 460 -165 0 0 -310 -124 0z"/>
 </g>
</svg>
